Format : AVI
Format/Info : Audio Video Interleave
File size : 1.46 GiB
Duration : 1h 24mn
Overall bit rate : 2 493 Kbps
Writing application : VirtualDubMod 1.5.10.2 (build 2540/release)
Writing library : VirtualDubMod build 2540/release

Video
ID : 0
Format : MPEG-4 Visual
Format profile : Advanced Simple@L5
Format settings, BVOP : 2
Format settings, QPel : No
Format settings, GMC : No warppoints
Format settings, Matrix : Default (H.263)
Muxing mode : Packed bitstream
Codec ID : XVID
Codec ID/Hint : XviD
Duration : 1h 24mn
Bit rate : 2 100 Kbps
Width : 720 pixels
Height : 384 pixels
Display aspect ratio : 1.875
Frame rate : 23.976 fps
Color space : YUV
Chroma subsampling : 4:2:0
Bit depth : 8 bits
Scan type : Progressive
Compression mode : Lossy
Bits/(Pixel*Frame) : 0.317
Stream size : 1.23 GiB (84%)
Writing library : XviD 64

Audio
ID : 1
Format : AC-3
Format/Info : Audio Coding 3
Mode extension : CM (complete main)
Codec ID : 2000
Duration : 1h 24mn
Bit rate mode : Constant
Bit rate : 384 Kbps
Channel(s) : 6 channels
Channel positions : Front: L C R, Side: L R, LFE
Sampling rate : 48.0 KHz
Bit depth : 16 bits
Compression mode : Lossy
Stream size : 231 MiB (15%)
Alignment : Split accross interleaves
Interleave, duration : 42 ms (1.00 video frame)
Interleave, preload duration : 500 ms






 
http://www.imdb.com/title/tt1366344/





Ratings: 5.5/10 from 7,165 users Metascore: 39/100 
Reviews: 44 user | 81 critic | 29 from Metacritic.com

A comedy about a college student on suspension who is coaxed into babysitting the kids next door, though he is fully unprepared for the wild night ahead of him.

Director:
David Gordon Green
Writers:
Brian Gatewood, Alessandro Tanaka
Stars:
Jonah Hill, Ari Graynor and Sam Rockwell 







Source Used



The Sitter 2011 UNRATED 1080p BluRay X264-AMIABLE............Thanks




Enjoy












 

